<?xml version="1.0" encoding="UTF-8"?>
<!DOCTYPE svg PUBLIC "-//W3C//DTD SVG 1.1//EN" "http://www.w3.org/Graphics/SVG/1.1/DTD/svg11.dtd">
<!-- Creator: Cirych -->
<svg xmlns="http://www.w3.org/2000/svg" xml:space="preserve" width="100%" height="100%" version="1.1" style="shape-rendering:geometricPrecision; text-rendering:geometricPrecision; image-rendering:optimizeQuality; fill-rule:evenodd; clip-rule:evenodd"
viewBox="0 0 3387 3387"
 xmlns:xlink="http://www.w3.org/1999/xlink">
 <defs>
  <style type="text/css">
   <![CDATA[
    .str1 {stroke:none;stroke-width:42.33}
    .str0 {stroke:#6666CC;stroke-width:42.33}
    .fil0 {fill:none}
	.fil01 {opacity:0}
   ]]>
  </style>
 </defs>
 <g id="Layer_x0020_1">
  <metadata id="Common-Layer"/>
  <g id="FullBoard">
   <rect id="Board" class="fil0" width="3387" height="3387"/>
   <path class="fil0 str0" d="M1148 51c-13,504 -78,907 -60,1428 15,434 -10,770 -39,1200 -9,128 -27,409 9,529 6,21 31,135 -2,145l-12 -13"/>
   <path class="fil0 str0" d="M2197 59c43,398 86,302 142,562 95,435 -187,1876 -241,2341 -16,139 42,408 42,399"/>
   <path class="fil0 str0" d="M25 1119c450,-33 1007,-78 1459,-43 318,24 642,99 948,128 164,15 382,-52 571,-24 95,15 230,-4 324,6"/>
   <path class="fil0 str0" d="M34 2295c290,-18 724,45 1027,57 300,13 516,22 815,-7 86,-8 1240,-79 1330,-15 56,40 78,29 130,35"/>
  </g>
  <g id="tictacs">
   <path id="o22" class="fil0 str1" d="M2604 2453c-217,96 -261,190 -267,423 -6,229 253,357 453,358 152,0 329,34 382,-155 39,-138 -27,-225 -93,-336 -70,-118 -229,-254 -373,-272 -9,-1 -19,-2 -28,-3"/>
   <path id="o21" class="fil0 str1" d="M1441 2514c-150,46 -172,39 -255,159 -45,65 -54,198 -30,273 35,112 54,169 169,224 115,55 309,47 428,8 157,-51 247,-111 236,-288 -8,-127 -162,-278 -284,-318 -83,-26 -203,-27 -289,-19 -1,0 -6,0 -7,0"/>
   <path id="o20" class="fil0 str1" d="M405 2458c-90,10 -251,84 -285,176 -51,138 -46,333 8,472 41,105 192,158 294,180 119,26 275,9 375,-66 121,-91 145,-154 130,-311 -18,-188 -207,-512 -439,-481 -5,1 -86,13 -86,15"/>
   <path id="x22" class="fil0 str1" d="M2303 2591c99,55 611,318 752,459 6,7 89,94 95,104m-82 -604c-41,51 -128,125 -179,175 -82,80 -169,154 -252,235 -75,72 -160,117 -231,203 -8,8 -26,29 -34,38"/>
   <path id="x21" class="fil0 str1" d="M1179 2555c82,58 224,195 297,262 148,138 318,249 491,352 2,2 58,33 58,33m-81 -637c-26,33 -335,262 -378,297 -101,83 -195,181 -298,266 -20,17 -46,44 -63,65"/>
   <path id="x20" class="fil0 str1" d="M85 2512c180,221 237,288 478,464 27,20 338,236 368,236m-56 -696c-77,93 -122,162 -208,253 -169,180 -222,230 -434,331 -20,10 -96,37 -108,46"/>
   <path id="o12" class="fil0 str1" d="M2798 1447c-119,-2 -189,38 -290,95 -135,74 -128,166 -82,300 51,145 250,286 401,300 212,19 469,-12 406,-295 -22,-99 -59,-156 -120,-236 -62,-81 -162,-163 -269,-167 -5,0 -4,-2 -5,4"/>
   <path id="o11" class="fil0 str1" d="M1664 1310c-87,-4 -250,15 -307,89 -75,99 -113,360 -67,478 37,94 85,133 179,167 154,57 268,52 429,33 133,-15 185,-73 214,-200 30,-131 -91,-366 -175,-464 -87,-101 -175,-103 -295,-116 -1,0 -17,0 -18,0"/>
   <path id="o10" class="fil0 str1" d="M545 1298c-80,-4 -335,72 -367,153 -36,93 -57,130 -72,235 -24,165 50,308 172,415 98,84 417,65 525,-8 161,-108 177,-303 102,-469 -113,-255 -448,-336 -698,-253"/>
   <path id="x12" class="fil0 str1" d="M2443 1415c17,-2 90,124 94,132 85,179 148,244 296,372 90,77 243,177 353,221 10,4 47,27 55,34 2,1 2,3 1,-5m-31 -730c-111,79 -198,159 -321,234 -109,67 -237,164 -316,266 -48,63 -114,145 -171,200 -2,2 -7,6 -7,7"/>
   <path id="x11" class="fil0 str1" d="M1286 1347c39,46 248,197 302,240 81,65 155,122 239,183 48,34 107,87 156,127 51,41 90,91 131,142 2,3 3,3 3,-1m-4 -697c-9,5 -72,75 -90,90 -40,34 -73,56 -115,94 -133,122 -262,209 -410,307 -83,56 -118,110 -188,173 -3,3 -40,41 -40,41"/>
   <path id="x10" class="fil0 str1" d="M164 1409c88,90 221,190 317,278 75,70 126,109 205,172 113,90 221,209 308,326 0,0 22,30 16,23m-68 -759c-93,66 -200,116 -297,188 -104,77 -380,274 -409,411 0,3 -15,55 -17,56"/>
   <path id="o02" class="fil0 str1" d="M2648 207c-47,11 -116,46 -146,85 -113,146 -132,488 22,614 129,104 311,114 470,103 118,-8 200,-90 242,-196 85,-211 -73,-444 -245,-559 -96,-65 -297,-77 -414,-53 -5,1 -7,0 -12,5"/>
   <path id="o01" class="fil0 str1" d="M1723 144c-93,-5 -318,139 -373,215 -122,169 -48,336 56,489 64,95 162,103 260,137 61,21 206,34 266,8 94,-40 150,-112 188,-204 57,-135 -77,-448 -217,-505 -137,-56 -210,-117 -368,-108"/>
   <path id="o00" class="fil0 str1" d="M636 174c-165,-27 -471,73 -522,252 -30,103 11,282 86,361 94,97 261,159 395,134 116,-21 101,-3 219,-62 46,-23 71,-76 106,-119 86,-105 50,-234 -2,-345 -46,-96 -283,-221 -282,-221z"/>
   <path id="x02" class="fil0 str1" d="M2413 284c57,56 115,110 172,167 158,156 270,233 464,339 59,31 145,58 210,84l1 -7m-62 -554c-102,63 -146,94 -236,166 -125,99 -263,190 -393,285 -55,41 -43,93 -71,147 -3,5 1,6 -4,7"/>
   <path id="x01" class="fil0 str1" d="M1288 354c77,33 145,87 227,127 151,73 245,108 377,217 70,58 198,143 243,223m-116 -562c-27,3 -296,203 -324,229 -57,53 -95,79 -149,139 -54,61 -79,82 -120,155 -7,12 -47,61 -47,66"/>
   <path id="x00" class="fil0 str1" d="M161 177c0,0 240,233 265,260 94,103 184,210 278,313 33,35 165,152 207,171 3,1 1,0 4,2m-2 -750c-65,39 -220,153 -275,213 -58,63 -47,86 -88,156 -65,114 -58,97 -167,171 -55,38 -100,50 -155,100 -5,4 -36,28 -36,33"/>
  </g>
  <g id="wins">
   <path id="d0022" class="fil0 str1" d="M102 93c401,486 855,771 1301,1294 235,274 367,373 585,694 302,444 1295,1096 1322,1136"/>
   <path id="d0220" class="fil0 str1" d="M3268 102c-386,328 -615,463 -1002,848 -421,420 -627,634 -994,1114 -110,143 -1126,1124 -1137,1213"/>
   <path id="v2" class="fil0 str1" d="M2819 76c144,1095 275,1894 -133,2925 -18,48 -23,182 -35,214"/>
   <path id="v1" class="fil0 str1" d="M1905 102c-377,840 -321,2153 -321,3108 0,45 16,51 -46,-1"/>
   <path id="v0" class="fil0 str1" d="M542 76c4,517 49,2841 -1,2977 -1,2 -24,185 -25,181"/>
   <path id="h2" class="fil0 str1" d="M3217 2709c-386,-44 -2328,134 -2902,216 -52,8 -165,7 -226,11"/>
   <path id="h1" class="fil0 str1" d="M68 1414c265,43 3036,421 3209,296"/>
   <path id="h0" class="fil0 str1" d="M76 262c664,274 511,268 1283,301 317,13 1702,164 1968,-21"/>
  </g>
  <g id="fields">
   <rect id="f22" class="fil01" x="2239" y="2329" width="1016" height="1016"/>
   <rect id="f21" class="fil01" x="1094" y="2371" width="1016" height="1016"/>
   <rect id="f20" class="fil01" x="48" y="2376" width="1016" height="1016"/>
   <rect id="f12" class="fil01" x="2300" y="1219" width="1016" height="1016"/>
   <rect id="f11" class="fil01" x="1181" y="1194" width="1016" height="1016"/>
   <rect id="f10" class="fil01" x="54" y="1191" width="1016" height="1016"/>
   <rect id="f02" class="fil01" x="2328" y="93" width="1016" height="1016"/>
   <rect id="f01" class="fil01" x="1202" y="68" width="1016" height="1016"/>
   <rect id="f00" class="fil01" x="42" y="34" width="1016" height="1016"/>
  </g>
 </g>
</svg>
